<svg version="1.1" id="Layer_1" xmlns="http://www.w3.org/2000/svg" xmlns:xlink="http://www.w3.org/1999/xlink" x="0px" y="0px"
	 width="100%" viewBox="0 0 500 500" enable-background="new 0 0 500 500" xml:space="preserve">
<path fill="#FFFFFF" opacity="1.000000" stroke="none" 
	d="
M235.000000,501.000000 
	C156.666687,501.000000 78.833374,501.000000 1.000042,501.000000 
	C1.000028,334.333405 1.000028,167.666779 1.000014,1.000131 
	C167.666565,1.000087 334.333130,1.000087 500.999756,1.000044 
	C500.999847,167.666519 500.999847,334.333038 500.999939,500.999786 
	C412.500000,501.000000 324.000000,501.000000 235.000000,501.000000 
M302.562714,232.951553 
	C302.723297,232.637863 302.883881,232.324173 302.997650,231.997360 
	C302.997650,231.997360 303.011505,232.043945 303.554535,231.944366 
	C303.716125,231.631775 303.877686,231.319183 303.996094,230.995880 
	C303.996094,230.995880 304.004913,231.039429 304.580414,230.915512 
	C304.794769,230.594696 305.009094,230.273865 305.548523,229.789673 
	C305.747101,229.631424 305.871674,229.427902 306.573730,228.912094 
	C319.319275,216.016464 330.518951,201.952316 336.420227,184.585541 
	C343.716919,163.112091 335.458160,142.470276 316.021484,131.745667 
	C298.197998,121.911171 276.194916,126.620201 262.200134,143.450867 
	C259.697937,146.460083 257.834869,150.000732 255.625137,153.374741 
	C246.613525,135.792358 232.894455,126.195747 212.570450,126.942749 
	C191.947952,127.700729 173.475433,146.599808 172.787018,167.109970 
	C172.250183,183.104004 179.172150,196.065414 187.711227,208.519531 
	C188.619171,209.843750 191.903580,209.538589 194.914398,210.137695 
	C205.420944,209.220337 206.733353,207.787537 206.733047,197.232971 
	C206.732910,192.067657 206.688873,186.901917 206.742569,181.737167 
	C206.805435,175.690231 208.756729,173.813354 214.931885,173.770355 
	C219.097244,173.741348 223.263046,173.750336 227.428543,173.768341 
	C236.121811,173.805878 239.179840,176.663040 239.427597,185.348251 
	C239.560425,190.004227 239.107483,194.678345 239.274429,199.331528 
	C239.540176,206.737717 241.210815,208.471039 248.527771,208.842117 
	C254.345566,209.137146 260.188263,208.911499 266.011841,209.130875 
	C271.901367,209.352722 273.972321,211.634094 273.992828,217.536484 
	C274.018890,225.034439 274.023315,232.532639 273.991730,240.030533 
	C273.964996,246.379593 272.048065,248.257294 265.557281,248.297852 
	C259.559113,248.335342 253.560364,248.332993 247.562119,248.299255 
	C243.729630,248.277695 240.401123,249.343567 239.443146,253.422455 
	C238.567535,257.150665 238.189880,260.868256 242.523880,263.406189 
	C245.944855,265.409454 248.985672,268.097870 252.060287,270.645020 
	C254.422028,272.601593 256.371918,273.035675 258.975281,270.793488 
	C262.877655,267.432526 267.371674,264.747223 271.197113,261.310455 
	C281.201172,252.322754 290.979156,243.083435 301.443329,233.965622 
	C301.647339,233.650314 301.851318,233.335022 302.000305,233.001328 
	C302.000305,233.001328 302.019287,233.056137 302.562714,232.951553 
M174.866226,298.310913 
	C176.963150,278.429596 164.752869,274.630768 146.794647,277.568695 
	C146.794647,288.699921 146.794647,299.752197 146.794647,311.012451 
	C150.847443,311.012451 154.339294,311.033386 157.830811,311.008362 
	C166.903336,310.943359 171.533127,307.655609 174.866226,298.310913 
M213.590881,288.656372 
	C213.033539,286.669983 212.476181,284.683594 211.918839,282.697205 
	C215.345383,282.193756 218.771927,281.690308 222.198456,281.186829 
	C222.336823,281.714783 222.475189,282.242706 222.613556,282.770630 
	C223.472443,281.631348 224.331314,280.492065 225.373688,279.109375 
	C220.975555,276.303162 216.623444,275.626099 211.884857,276.841949 
	C207.797653,277.890686 205.059311,280.224884 204.400955,284.508240 
	C203.741699,288.797333 205.594971,291.919525 209.293915,293.988922 
	C211.606705,295.282867 214.331512,296.088989 216.211533,297.827606 
	C217.661865,299.168854 219.152725,301.958191 218.669312,303.483826 
	C218.174271,305.046112 215.296539,306.779663 213.465454,306.775543 
	C210.706360,306.769379 207.950500,305.318024 205.014938,304.426849 
	C204.487183,305.843567 203.941772,307.307678 202.830719,310.290192 
	C208.507584,310.567413 213.379974,311.369080 218.114426,310.867798 
	C222.308044,310.423767 225.228287,307.378418 225.956161,302.935547 
	C226.709702,298.335907 225.041138,294.798798 220.880524,292.548248 
	C218.693924,291.365509 216.492203,290.210693 213.590881,288.656372 
M235.678421,288.421265 
	C233.816528,288.228058 231.954620,288.034851 230.057098,287.837982 
	C230.057098,293.787506 229.879913,299.116516 230.105911,304.428375 
	C230.341431,309.963959 233.527100,312.519562 238.596054,311.498444 
	C241.796585,310.853699 244.707169,308.046875 248.309021,311.098053 
	C249.169250,311.826752 251.660675,310.629883 254.486252,310.124817 
	C245.708206,303.843964 251.404999,295.092896 248.977676,288.137634 
	C247.023041,288.137634 245.252090,288.137634 243.746582,288.137634 
	C243.746582,293.077667 244.182571,297.778595 243.526215,302.321686 
	C243.273239,304.072723 240.537552,305.465118 238.933044,307.020905 
	C237.916687,305.429169 236.190201,303.908356 236.022858,302.231873 
	C235.595001,297.945404 235.861526,293.589691 235.678421,288.421265 
M321.139099,291.728119 
	C317.530884,286.071320 311.667938,285.543579 304.910065,290.321747 
	C305.507050,292.885590 306.383484,293.774658 309.309113,292.339935 
	C314.505829,289.791443 316.181305,291.213104 315.562347,297.115723 
	C313.818939,297.427063 311.728394,297.266724 310.319489,298.169830 
	C307.846924,299.754761 305.178589,301.648346 303.811615,304.094177 
	C303.090118,305.385071 304.454224,309.447998 305.734161,309.916443 
	C308.391937,310.889160 311.621521,310.333344 314.616028,310.334290 
	C315.706024,310.334625 316.806244,309.979218 317.884094,310.051300 
	C320.497314,310.226013 323.100189,310.556458 325.707214,310.824158 
	C325.993286,310.272125 326.279358,309.720093 326.565430,309.168030 
	C319.586243,306.158051 322.242523,300.365814 321.762238,295.476196 
	C321.665222,294.488434 321.500214,293.507355 321.139099,291.728119 
M282.249725,317.861206 
	C281.460968,320.429382 282.420746,322.359192 284.968658,320.972137 
	C287.826416,319.416412 291.086243,317.123413 292.318115,314.333099 
	C296.045502,305.890350 298.875885,297.051636 302.054443,288.370941 
	C298.251862,286.975037 296.487579,288.118134 295.548462,291.622223 
	C294.638855,295.016266 293.086487,298.238037 291.673431,301.906738 
	C290.346619,298.173828 288.920288,295.120483 288.202179,291.908813 
	C287.202301,287.436859 284.635254,287.238495 280.802002,288.340698 
	C283.241974,295.032654 285.591095,301.398071 287.882294,307.784302 
	C289.673950,312.778198 288.044830,315.841583 282.249725,317.861206 
M341.547607,306.735535 
	C341.102844,307.694336 340.658081,308.653168 340.202301,309.635712 
	C341.212769,310.164154 341.767761,310.562378 342.386749,310.761505 
	C348.786987,312.820282 354.295319,311.165985 356.242371,306.633484 
	C358.111084,302.283234 356.706940,300.251648 349.432007,296.121552 
	C348.353333,295.509186 347.766113,294.031036 346.951538,292.953461 
	C348.488037,292.386414 350.297455,291.005127 351.507904,291.410828 
	C354.655334,292.465759 355.732971,291.613495 355.823181,288.195984 
	C353.769226,287.822845 351.827759,287.134460 349.907959,287.190399 
	C345.753235,287.311462 341.804352,288.270660 340.768311,293.150757 
	C339.785339,297.780731 342.909760,299.493042 346.496399,301.163574 
	C348.125641,301.922394 349.164062,303.949677 350.470490,305.401550 
	C348.479950,305.930511 346.508728,306.567078 344.488403,306.930542 
	C343.773865,307.059082 342.939392,306.521149 341.547607,306.735535 
M184.875153,309.143707 
	C184.879852,306.153961 184.365875,303.039185 185.047226,300.212555 
	C185.631607,297.788116 187.507233,295.642639 188.954468,293.468719 
	C190.127563,291.706573 191.512634,290.085541 192.803696,288.401917 
	C192.309753,287.974274 191.815811,287.546631 191.321884,287.119019 
	C189.260529,288.327301 187.199188,289.535583 185.137833,290.743835 
	C185.282669,290.367004 185.427490,289.990173 185.572311,289.613373 
	C183.308044,288.771637 181.043762,287.929932 178.982513,287.163666 
	C178.982513,295.772003 178.982513,303.305878 178.982513,311.590088 
	C181.499496,310.927185 183.144730,310.493866 184.875153,309.143707 
M264.551208,294.114075 
	C267.714874,292.987305 269.987854,291.363190 268.287384,287.029358 
	C265.966858,288.338715 263.878479,289.517059 261.790131,290.695404 
	C261.897308,290.201874 262.004486,289.708344 262.111664,289.214813 
	C259.907684,288.574005 257.703705,287.933197 255.717209,287.355621 
	C255.717209,295.922424 255.717209,303.292511 255.717209,310.818481 
	C257.965637,310.818481 259.545532,310.818481 261.623779,310.818481 
	C261.623779,307.840363 261.323486,305.018463 261.710144,302.294006 
	C262.079712,299.689636 263.163971,297.186676 264.551208,294.114075 
M273.736023,287.837646 
	C273.193787,288.100220 272.181000,288.357330 272.177856,288.626160 
	C272.092194,296.025421 272.109283,303.425842 272.109283,311.098999 
	C274.507904,310.966644 276.089844,310.879364 277.962006,310.776062 
	C277.962006,303.777985 277.832306,297.141541 278.021973,290.514221 
	C278.104919,287.615417 276.469849,287.740234 273.736023,287.837646 
M330.683624,288.601776 
	C334.341797,286.845856 336.221100,283.778107 335.707489,279.912018 
	C335.525421,278.541565 333.237762,277.450867 331.911346,276.232452 
	C330.929779,277.357208 329.159119,278.456787 329.122284,279.611664 
	C329.030670,282.485474 329.728851,285.384430 330.683624,288.601776 
M198.119156,311.386047 
	C198.927231,309.839966 200.256897,308.313232 200.315247,306.739349 
	C200.342880,305.993713 197.941605,304.562958 196.638580,304.560455 
	C195.679153,304.558594 193.721451,306.852234 193.932510,307.287994 
	C194.715637,308.904877 196.212601,310.176025 198.119156,311.386047 
M271.651154,280.231079 
	C273.185516,281.074432 274.684204,282.419556 276.270477,282.532196 
	C276.977142,282.582367 278.451355,280.158264 278.467438,278.843597 
	C278.479309,277.871124 276.206757,275.870911 275.800140,276.069061 
	C274.182983,276.857178 272.898590,278.328094 271.651154,280.231079 
z"/>
<path fill="#2AABDC" opacity="1.000000" stroke="none" 
	d="
M305.922302,229.179108 
	C305.871674,229.427902 305.747101,229.631424 305.085022,229.922638 
	C304.415955,230.383545 304.210449,230.711487 304.004913,231.039429 
	C304.004913,231.039429 303.996094,230.995880 303.751465,231.059753 
	C303.341705,231.430405 303.176605,231.737167 303.011505,232.043945 
	C303.011505,232.043945 302.997650,231.997360 302.756439,232.065735 
	C302.349915,232.441437 302.184601,232.748779 302.019287,233.056137 
	C302.019287,233.056137 302.000305,233.001328 301.764526,233.064636 
	C301.301605,233.400116 301.074432,233.672272 300.847290,233.944443 
	C290.979156,243.083435 281.201172,252.322754 271.197113,261.310455 
	C267.371674,264.747223 262.877655,267.432526 258.975281,270.793488 
	C256.371918,273.035675 254.422028,272.601593 252.060287,270.645020 
	C248.985672,268.097870 245.944855,265.409454 242.523880,263.406189 
	C238.189880,260.868256 238.567535,257.150665 239.443146,253.422455 
	C240.401123,249.343567 243.729630,248.277695 247.562119,248.299255 
	C253.560364,248.332993 259.559113,248.335342 265.557281,248.297852 
	C272.048065,248.257294 273.964996,246.379593 273.991730,240.030533 
	C274.023315,232.532639 274.018890,225.034439 273.992828,217.536484 
	C273.972321,211.634094 271.901367,209.352722 266.011841,209.130875 
	C260.188263,208.911499 254.345566,209.137146 248.527771,208.842117 
	C241.210815,208.471039 239.540176,206.737717 239.274429,199.331528 
	C239.107483,194.678345 239.560425,190.004227 239.427597,185.348251 
	C239.179840,176.663040 236.121811,173.805878 227.428543,173.768341 
	C223.263046,173.750336 219.097244,173.741348 214.931885,173.770355 
	C208.756729,173.813354 206.805435,175.690231 206.742569,181.737167 
	C206.688873,186.901917 206.732910,192.067657 206.733047,197.232971 
	C206.733353,207.787537 205.420944,209.220337 194.443817,209.692169 
	C192.635635,202.648117 190.375656,196.081268 190.147736,189.444641 
	C189.633881,174.481522 198.058548,164.461853 211.172989,159.186996 
	C223.686615,154.153778 236.162704,155.850128 246.505844,165.262360 
	C250.199005,168.623138 252.839218,173.140961 256.097443,177.306320 
	C256.498688,176.630997 257.020386,175.824615 257.472656,174.980988 
	C264.671448,161.552429 277.793640,155.085632 293.903503,157.038162 
	C306.350983,158.546814 317.819641,169.530685 321.170929,183.057297 
	C324.119965,194.960388 319.968262,205.291962 314.163269,215.267181 
	C311.452362,219.925476 308.671478,224.543060 305.922302,229.179108 
z"/>
<path fill="#65EBB7" opacity="1.000000" stroke="none" 
	d="
M306.247986,229.045593 
	C308.671478,224.543060 311.452362,219.925476 314.163269,215.267181 
	C319.968262,205.291962 324.119965,194.960388 321.170929,183.057297 
	C317.819641,169.530685 306.350983,158.546814 293.903503,157.038162 
	C277.793640,155.085632 264.671448,161.552429 257.472656,174.980988 
	C257.020386,175.824615 256.498688,176.630997 256.097443,177.306320 
	C252.839218,173.140961 250.199005,168.623138 246.505844,165.262360 
	C236.162704,155.850128 223.686615,154.153778 211.172989,159.186996 
	C198.058548,164.461853 189.633881,174.481522 190.147736,189.444641 
	C190.375656,196.081268 192.635635,202.648117 194.029358,209.617981 
	C191.903580,209.538589 188.619171,209.843750 187.711227,208.519531 
	C179.172150,196.065414 172.250183,183.104004 172.787018,167.109970 
	C173.475433,146.599808 191.947952,127.700729 212.570450,126.942749 
	C232.894455,126.195747 246.613525,135.792358 255.625137,153.374741 
	C257.834869,150.000732 259.697937,146.460083 262.200134,143.450867 
	C276.194916,126.620201 298.197998,121.911171 316.021484,131.745667 
	C335.458160,142.470276 343.716919,163.112091 336.420227,184.585541 
	C330.518951,201.952316 319.319275,216.016464 306.247986,229.045593 
z"/>
<path fill="#1E43A2" opacity="1.000000" stroke="none" 
	d="
M174.777542,298.690735 
	C171.533127,307.655609 166.903336,310.943359 157.830811,311.008362 
	C154.339294,311.033386 150.847443,311.012451 146.794647,311.012451 
	C146.794647,299.752197 146.794647,288.699921 146.794647,277.568695 
	C164.752869,274.630768 176.963150,278.429596 174.777542,298.690735 
M168.160980,295.294159 
	C167.940918,283.897339 163.397736,279.888275 153.332626,282.239532 
	C153.332626,290.162018 153.332626,298.087799 153.332626,305.982635 
	C163.706116,306.845734 166.600510,304.878052 168.160980,295.294159 
z"/>
<path fill="#2348A4" opacity="1.000000" stroke="none" 
	d="
M213.944092,288.849823 
	C216.492203,290.210693 218.693924,291.365509 220.880524,292.548248 
	C225.041138,294.798798 226.709702,298.335907 225.956161,302.935547 
	C225.228287,307.378418 222.308044,310.423767 218.114426,310.867798 
	C213.379974,311.369080 208.507584,310.567413 202.830719,310.290192 
	C203.941772,307.307678 204.487183,305.843567 205.014938,304.426849 
	C207.950500,305.318024 210.706360,306.769379 213.465454,306.775543 
	C215.296539,306.779663 218.174271,305.046112 218.669312,303.483826 
	C219.152725,301.958191 217.661865,299.168854 216.211533,297.827606 
	C214.331512,296.088989 211.606705,295.282867 209.293915,293.988922 
	C205.594971,291.919525 203.741699,288.797333 204.400955,284.508240 
	C205.059311,280.224884 207.797653,277.890686 211.884857,276.841949 
	C216.623444,275.626099 220.975555,276.303162 225.373688,279.109375 
	C224.331314,280.492065 223.472443,281.631348 222.613556,282.770630 
	C222.475189,282.242706 222.336823,281.714783 222.198456,281.186829 
	C218.771927,281.690308 215.345383,282.193756 211.918839,282.697205 
	C212.476181,284.683594 213.033539,286.669983 213.944092,288.849823 
z"/>
<path fill="#2146A3" opacity="1.000000" stroke="none" 
	d="
M235.764374,288.841461 
	C235.861526,293.589691 235.595001,297.945404 236.022858,302.231873 
	C236.190201,303.908356 237.916687,305.429169 238.933044,307.020905 
	C240.537552,305.465118 243.273239,304.072723 243.526215,302.321686 
	C244.182571,297.778595 243.746582,293.077667 243.746582,288.137634 
	C245.252090,288.137634 247.023041,288.137634 248.977676,288.137634 
	C251.404999,295.092896 245.708206,303.843964 254.486252,310.124817 
	C251.660675,310.629883 249.169250,311.826752 248.309021,311.098053 
	C244.707169,308.046875 241.796585,310.853699 238.596054,311.498444 
	C233.527100,312.519562 230.341431,309.963959 230.105911,304.428375 
	C229.879913,299.116516 230.057098,293.787506 230.057098,287.837982 
	C231.954620,288.034851 233.816528,288.228058 235.764374,288.841461 
z"/>
<path fill="#2549A4" opacity="1.000000" stroke="none" 
	d="
M321.252808,292.125671 
	C321.500214,293.507355 321.665222,294.488434 321.762238,295.476196 
	C322.242523,300.365814 319.586243,306.158051 326.565430,309.168030 
	C326.279358,309.720093 325.993286,310.272125 325.707214,310.824158 
	C323.100189,310.556458 320.497314,310.226013 317.884094,310.051300 
	C316.806244,309.979218 315.706024,310.334625 314.616028,310.334290 
	C311.621521,310.333344 308.391937,310.889160 305.734161,309.916443 
	C304.454224,309.447998 303.090118,305.385071 303.811615,304.094177 
	C305.178589,301.648346 307.846924,299.754761 310.319489,298.169830 
	C311.728394,297.266724 313.818939,297.427063 315.562347,297.115723 
	C316.181305,291.213104 314.505829,289.791443 309.309113,292.339935 
	C306.383484,293.774658 305.507050,292.885590 304.910065,290.321747 
	C311.667938,285.543579 317.530884,286.071320 321.252808,292.125671 
M309.385376,305.399445 
	C310.923431,305.748535 312.953918,306.858154 313.878387,306.259644 
	C315.110779,305.461670 315.483307,303.335663 316.225189,301.780090 
	C315.688110,301.351440 315.151062,300.922821 314.613983,300.494171 
	C312.848206,301.881073 311.082428,303.267944 309.385376,305.399445 
z"/>
<path fill="#2348A4" opacity="1.000000" stroke="none" 
	d="
M282.552277,317.632294 
	C288.044830,315.841583 289.673950,312.778198 287.882294,307.784302 
	C285.591095,301.398071 283.241974,295.032654 280.802002,288.340698 
	C284.635254,287.238495 287.202301,287.436859 288.202179,291.908813 
	C288.920288,295.120483 290.346619,298.173828 291.673431,301.906738 
	C293.086487,298.238037 294.638855,295.016266 295.548462,291.622223 
	C296.487579,288.118134 298.251862,286.975037 302.054443,288.370941 
	C298.875885,297.051636 296.045502,305.890350 292.318115,314.333099 
	C291.086243,317.123413 287.826416,319.416412 284.968658,320.972137 
	C282.420746,322.359192 281.460968,320.429382 282.552277,317.632294 
z"/>
<path fill="#2549A4" opacity="1.000000" stroke="none" 
	d="
M341.853638,306.511505 
	C342.939392,306.521149 343.773865,307.059082 344.488403,306.930542 
	C346.508728,306.567078 348.479950,305.930511 350.470490,305.401550 
	C349.164062,303.949677 348.125641,301.922394 346.496399,301.163574 
	C342.909760,299.493042 339.785339,297.780731 340.768311,293.150757 
	C341.804352,288.270660 345.753235,287.311462 349.907959,287.190399 
	C351.827759,287.134460 353.769226,287.822845 355.823181,288.195984 
	C355.732971,291.613495 354.655334,292.465759 351.507904,291.410828 
	C350.297455,291.005127 348.488037,292.386414 346.951538,292.953461 
	C347.766113,294.031036 348.353333,295.509186 349.432007,296.121552 
	C356.706940,300.251648 358.111084,302.283234 356.242371,306.633484 
	C354.295319,311.165985 348.786987,312.820282 342.386749,310.761505 
	C341.767761,310.562378 341.212769,310.164154 340.202301,309.635712 
	C340.658081,308.653168 341.102844,307.694336 341.853638,306.511505 
z"/>
<path fill="#2549A4" opacity="1.000000" stroke="none" 
	d="
M184.832550,309.602112 
	C183.144730,310.493866 181.499496,310.927185 178.982513,311.590088 
	C178.982513,303.305878 178.982513,295.772003 178.982513,287.163666 
	C181.043762,287.929932 183.308044,288.771637 185.572311,289.613373 
	C185.427490,289.990173 185.282669,290.367004 185.137833,290.743835 
	C187.199188,289.535583 189.260529,288.327301 191.321884,287.119019 
	C191.815811,287.546631 192.309753,287.974274 192.803696,288.401917 
	C191.512634,290.085541 190.127563,291.706573 188.954468,293.468719 
	C187.507233,295.642639 185.631607,297.788116 185.047226,300.212555 
	C184.365875,303.039185 184.879852,306.153961 184.832550,309.602112 
z"/>
<path fill="#2549A4" opacity="1.000000" stroke="none" 
	d="
M264.242615,294.376617 
	C263.163971,297.186676 262.079712,299.689636 261.710144,302.294006 
	C261.323486,305.018463 261.623779,307.840363 261.623779,310.818481 
	C259.545532,310.818481 257.965637,310.818481 255.717209,310.818481 
	C255.717209,303.292511 255.717209,295.922424 255.717209,287.355621 
	C257.703705,287.933197 259.907684,288.574005 262.111664,289.214813 
	C262.004486,289.708344 261.897308,290.201874 261.790131,290.695404 
	C263.878479,289.517059 265.966858,288.338715 268.287384,287.029358 
	C269.987854,291.363190 267.714874,292.987305 264.242615,294.376617 
z"/>
<path fill="#2549A4" opacity="1.000000" stroke="none" 
	d="
M274.148224,287.833008 
	C276.469849,287.740234 278.104919,287.615417 278.021973,290.514221 
	C277.832306,297.141541 277.962006,303.777985 277.962006,310.776062 
	C276.089844,310.879364 274.507904,310.966644 272.109283,311.098999 
	C272.109283,303.425842 272.092194,296.025421 272.177856,288.626160 
	C272.181000,288.357330 273.193787,288.100220 274.148224,287.833008 
z"/>
<path fill="#2549A4" opacity="1.000000" stroke="none" 
	d="
M330.396759,288.437561 
	C329.728851,285.384430 329.030670,282.485474 329.122284,279.611664 
	C329.159119,278.456787 330.929779,277.357208 331.911346,276.232452 
	C333.237762,277.450867 335.525421,278.541565 335.707489,279.912018 
	C336.221100,283.778107 334.341797,286.845856 330.396759,288.437561 
z"/>
<path fill="#2549A4" opacity="1.000000" stroke="none" 
	d="
M197.780304,311.481506 
	C196.212601,310.176025 194.715637,308.904877 193.932510,307.287994 
	C193.721451,306.852234 195.679153,304.558594 196.638580,304.560455 
	C197.941605,304.562958 200.342880,305.993713 200.315247,306.739349 
	C200.256897,308.313232 198.927231,309.839966 197.780304,311.481506 
z"/>
<path fill="#2549A4" opacity="1.000000" stroke="none" 
	d="
M271.571045,279.888580 
	C272.898590,278.328094 274.182983,276.857178 275.800140,276.069061 
	C276.206757,275.870911 278.479309,277.871124 278.467438,278.843597 
	C278.451355,280.158264 276.977142,282.582367 276.270477,282.532196 
	C274.684204,282.419556 273.185516,281.074432 271.571045,279.888580 
z"/>
<path fill="#65EBB7" opacity="1.000000" stroke="none" 
	d="
M304.292664,230.977478 
	C304.210449,230.711487 304.415955,230.383545 304.922485,230.004318 
	C305.009094,230.273865 304.794769,230.594696 304.292664,230.977478 
z"/>
<path fill="#65EBB7" opacity="1.000000" stroke="none" 
	d="
M303.283020,231.994156 
	C303.176605,231.737167 303.341705,231.430405 303.773010,231.065094 
	C303.877686,231.319183 303.716125,231.631775 303.283020,231.994156 
z"/>
<path fill="#65EBB7" opacity="1.000000" stroke="none" 
	d="
M301.145325,233.955032 
	C301.074432,233.672272 301.301605,233.400116 301.792053,233.073822 
	C301.851318,233.335022 301.647339,233.650314 301.145325,233.955032 
z"/>
<path fill="#65EBB7" opacity="1.000000" stroke="none" 
	d="
M302.291016,233.003845 
	C302.184601,232.748779 302.349915,232.441437 302.779846,232.072296 
	C302.883881,232.324173 302.723297,232.637863 302.291016,233.003845 
z"/>
<path fill="#FBFBFD" opacity="1.000000" stroke="none" 
	d="
M168.136322,295.726868 
	C166.600510,304.878052 163.706116,306.845734 153.332626,305.982635 
	C153.332626,298.087799 153.332626,290.162018 153.332626,282.239532 
	C163.397736,279.888275 167.940918,283.897339 168.136322,295.726868 
z"/>
<path fill="#FBFBFD" opacity="1.000000" stroke="none" 
	d="
M309.351013,305.027161 
	C311.082428,303.267944 312.848206,301.881073 314.613983,300.494171 
	C315.151062,300.922821 315.688110,301.351440 316.225189,301.780090 
	C315.483307,303.335663 315.110779,305.461670 313.878387,306.259644 
	C312.953918,306.858154 310.923431,305.748535 309.351013,305.027161 
z"/>
</svg>